<mxfile host="app.diagrams.net" modified="2024-01-23T08:44:20.332Z" agent="Mozilla/5.0 (Macintosh; Intel Mac OS X 10_15_7) AppleWebKit/537.36 (KHTML, like Gecko) Chrome/120.0.0.0 Safari/537.36" etag="RQKwNYkG8WeuznQCGPu4" version="22.1.21" type="github">
  <diagram name="第 1 页" id="DhH5-FDjBbhudTGrW0KN">
    <mxGraphModel dx="818" dy="739" grid="1" gridSize="10" guides="1" tooltips="1" connect="1" arrows="1" fold="1" page="1" pageScale="1" pageWidth="827" pageHeight="1169" math="0" shadow="0">
      <root>
        <mxCell id="0" />
        <mxCell id="1" parent="0" />
        <mxCell id="scSDOBY3m2TwEwSf54rs-8" value="" style="edgeStyle=orthogonalEdgeStyle;rounded=0;orthogonalLoop=1;jettySize=auto;html=1;" edge="1" parent="1" source="scSDOBY3m2TwEwSf54rs-1" target="scSDOBY3m2TwEwSf54rs-5">
          <mxGeometry relative="1" as="geometry" />
        </mxCell>
        <mxCell id="scSDOBY3m2TwEwSf54rs-1" value="ExploreRecommendFragment" style="swimlane;fontStyle=1;align=center;verticalAlign=top;childLayout=stackLayout;horizontal=1;startSize=26;horizontalStack=0;resizeParent=1;resizeParentMax=0;resizeLast=0;collapsible=1;marginBottom=0;whiteSpace=wrap;html=1;" vertex="1" parent="1">
          <mxGeometry x="20" y="110" width="190" height="60" as="geometry" />
        </mxCell>
        <mxCell id="scSDOBY3m2TwEwSf54rs-3" value="" style="line;strokeWidth=1;fillColor=none;align=left;verticalAlign=middle;spacingTop=-1;spacingLeft=3;spacingRight=3;rotatable=0;labelPosition=right;points=[];portConstraint=eastwest;strokeColor=inherit;" vertex="1" parent="scSDOBY3m2TwEwSf54rs-1">
          <mxGeometry y="26" width="190" height="8" as="geometry" />
        </mxCell>
        <mxCell id="scSDOBY3m2TwEwSf54rs-4" value="# onCreateView()" style="text;strokeColor=none;fillColor=none;align=left;verticalAlign=top;spacingLeft=4;spacingRight=4;overflow=hidden;rotatable=0;points=[[0,0.5],[1,0.5]];portConstraint=eastwest;whiteSpace=wrap;html=1;" vertex="1" parent="scSDOBY3m2TwEwSf54rs-1">
          <mxGeometry y="34" width="190" height="26" as="geometry" />
        </mxCell>
        <mxCell id="scSDOBY3m2TwEwSf54rs-12" value="" style="edgeStyle=orthogonalEdgeStyle;rounded=0;orthogonalLoop=1;jettySize=auto;html=1;" edge="1" parent="1" source="scSDOBY3m2TwEwSf54rs-5" target="scSDOBY3m2TwEwSf54rs-9">
          <mxGeometry relative="1" as="geometry" />
        </mxCell>
        <mxCell id="scSDOBY3m2TwEwSf54rs-5" value="BaseExploreFragment" style="swimlane;fontStyle=1;align=center;verticalAlign=top;childLayout=stackLayout;horizontal=1;startSize=26;horizontalStack=0;resizeParent=1;resizeParentMax=0;resizeLast=0;collapsible=1;marginBottom=0;whiteSpace=wrap;html=1;" vertex="1" parent="1">
          <mxGeometry x="290" y="110" width="190" height="60" as="geometry" />
        </mxCell>
        <mxCell id="scSDOBY3m2TwEwSf54rs-6" value="" style="line;strokeWidth=1;fillColor=none;align=left;verticalAlign=middle;spacingTop=-1;spacingLeft=3;spacingRight=3;rotatable=0;labelPosition=right;points=[];portConstraint=eastwest;strokeColor=inherit;" vertex="1" parent="scSDOBY3m2TwEwSf54rs-5">
          <mxGeometry y="26" width="190" height="8" as="geometry" />
        </mxCell>
        <mxCell id="scSDOBY3m2TwEwSf54rs-7" value="# onCreateView()" style="text;strokeColor=none;fillColor=none;align=left;verticalAlign=top;spacingLeft=4;spacingRight=4;overflow=hidden;rotatable=0;points=[[0,0.5],[1,0.5]];portConstraint=eastwest;whiteSpace=wrap;html=1;" vertex="1" parent="scSDOBY3m2TwEwSf54rs-5">
          <mxGeometry y="34" width="190" height="26" as="geometry" />
        </mxCell>
        <mxCell id="scSDOBY3m2TwEwSf54rs-18" value="" style="edgeStyle=orthogonalEdgeStyle;rounded=0;orthogonalLoop=1;jettySize=auto;html=1;" edge="1" parent="1" source="scSDOBY3m2TwEwSf54rs-9" target="scSDOBY3m2TwEwSf54rs-14">
          <mxGeometry relative="1" as="geometry" />
        </mxCell>
        <mxCell id="scSDOBY3m2TwEwSf54rs-9" value="ExploreView" style="swimlane;fontStyle=1;align=center;verticalAlign=top;childLayout=stackLayout;horizontal=1;startSize=26;horizontalStack=0;resizeParent=1;resizeParentMax=0;resizeLast=0;collapsible=1;marginBottom=0;whiteSpace=wrap;html=1;" vertex="1" parent="1">
          <mxGeometry x="560" y="70" width="190" height="140" as="geometry" />
        </mxCell>
        <mxCell id="scSDOBY3m2TwEwSf54rs-10" value="" style="line;strokeWidth=1;fillColor=none;align=left;verticalAlign=middle;spacingTop=-1;spacingLeft=3;spacingRight=3;rotatable=0;labelPosition=right;points=[];portConstraint=eastwest;strokeColor=inherit;" vertex="1" parent="scSDOBY3m2TwEwSf54rs-9">
          <mxGeometry y="26" width="190" height="8" as="geometry" />
        </mxCell>
        <mxCell id="scSDOBY3m2TwEwSf54rs-11" value="# initChannelData()&lt;br&gt;-----------------------&amp;gt;" style="text;strokeColor=none;fillColor=none;align=left;verticalAlign=top;spacingLeft=4;spacingRight=4;overflow=hidden;rotatable=0;points=[[0,0.5],[1,0.5]];portConstraint=eastwest;whiteSpace=wrap;html=1;" vertex="1" parent="scSDOBY3m2TwEwSf54rs-9">
          <mxGeometry y="34" width="190" height="36" as="geometry" />
        </mxCell>
        <mxCell id="scSDOBY3m2TwEwSf54rs-13" value="- initRecyclerView()&lt;br&gt;----------------------&amp;gt;&lt;br&gt;-&amp;nbsp;bindRvForFirstScreen" style="text;strokeColor=none;fillColor=none;align=left;verticalAlign=top;spacingLeft=4;spacingRight=4;overflow=hidden;rotatable=0;points=[[0,0.5],[1,0.5]];portConstraint=eastwest;whiteSpace=wrap;html=1;" vertex="1" parent="scSDOBY3m2TwEwSf54rs-9">
          <mxGeometry y="70" width="190" height="70" as="geometry" />
        </mxCell>
        <mxCell id="scSDOBY3m2TwEwSf54rs-14" value="CostTrackHellper" style="swimlane;fontStyle=1;align=center;verticalAlign=top;childLayout=stackLayout;horizontal=1;startSize=26;horizontalStack=0;resizeParent=1;resizeParentMax=0;resizeLast=0;collapsible=1;marginBottom=0;whiteSpace=wrap;html=1;" vertex="1" parent="1">
          <mxGeometry x="560" y="290" width="190" height="70" as="geometry" />
        </mxCell>
        <mxCell id="scSDOBY3m2TwEwSf54rs-15" value="" style="line;strokeWidth=1;fillColor=none;align=left;verticalAlign=middle;spacingTop=-1;spacingLeft=3;spacingRight=3;rotatable=0;labelPosition=right;points=[];portConstraint=eastwest;strokeColor=inherit;" vertex="1" parent="scSDOBY3m2TwEwSf54rs-14">
          <mxGeometry y="26" width="190" height="8" as="geometry" />
        </mxCell>
        <mxCell id="scSDOBY3m2TwEwSf54rs-16" value="# setStageById(...,POINT_7)" style="text;strokeColor=none;fillColor=none;align=left;verticalAlign=top;spacingLeft=4;spacingRight=4;overflow=hidden;rotatable=0;points=[[0,0.5],[1,0.5]];portConstraint=eastwest;whiteSpace=wrap;html=1;" vertex="1" parent="scSDOBY3m2TwEwSf54rs-14">
          <mxGeometry y="34" width="190" height="36" as="geometry" />
        </mxCell>
      </root>
    </mxGraphModel>
  </diagram>
</mxfile>
